<svg width="668" height="649" viewBox="0 0 668 649" fill="none" xmlns="http://www.w3.org/2000/svg">
<g clip-path="url(#clip0_2_2)">
<path d="M451.793 215.396C450.799 97.3367 354.828 1.9219 236.546 1.8569C117.242 1.7919 21.0011 99.6578 21.0011 218.905V609.942C21.0011 620.037 25.0116 629.72 32.1503 636.858C39.289 643.997 48.9711 648.007 59.0668 648.007H451.793C570.753 648.007 667.189 549.714 667.189 430.755C667.189 311.795 570.753 215.396 451.793 215.396Z" fill="#6C63FF"/>
<path opacity="0.1" d="M451.793 213.539C450.799 95.4798 354.828 0.0649858 236.546 4.57764e-05C171.871 4.57764e-05 113.993 28.7257 74.5159 74.0609C111.892 45.2373 157.78 29.6377 204.979 29.7098C323.261 29.7748 419.233 125.19 420.226 243.249C539.186 243.249 635.622 339.685 635.622 458.645C635.693 510.533 616.962 560.691 582.897 599.831C609.134 579.738 630.387 553.868 645.006 524.23C659.625 494.591 667.215 461.982 667.189 428.935C667.189 309.975 570.753 213.539 451.793 213.539Z" fill="black"/>
</g>
<defs>
<clipPath id="clip0_2_2">
<rect width="667.189" height="648.099" fill="white"/>
</clipPath>
</defs>
</svg>
